<svg width="30" height="30" viewBox="0 0 30 30" fill="none" xmlns="http://www.w3.org/2000/svg">
<path fill-rule="evenodd" clip-rule="evenodd" d="M24.3483 11.4517C23.4034 8.96597 21.5283 6.97159 19.1007 5.88137C16.6789 4.79114 13.9345 4.70974 11.4517 5.65169C8.96597 6.59655 6.97159 8.47465 5.88137 10.8993C4.79114 13.3211 4.70974 16.0655 5.65169 18.5483C6.59655 21.034 8.47174 23.0284 10.8993 24.1186C13.3211 25.2089 16.0655 25.2903 18.5483 24.3483C21.034 23.4034 23.0284 21.5283 24.1186 19.1007C25.2089 16.6789 25.2903 13.9345 24.3483 11.4517ZM23.5779 18.8565C21.4469 23.5953 15.8794 25.7089 11.1435 23.5779C6.40758 21.4498 4.294 15.8824 6.42212 11.1435C8.55314 6.40467 14.1206 4.294 18.8565 6.42212C23.5953 8.55314 25.7089 14.1206 23.5779 18.8565Z" fill="white"/>
<path fill-rule="evenodd" clip-rule="evenodd" d="M21.2195 7.93386C21.4695 8.15481 21.7079 8.38739 21.9289 8.6287C22.0452 9.56483 21.8504 10.3963 21.4928 11.0941C21.4172 11.2394 21.3387 11.379 21.2515 11.5127C21.1585 11.6552 21.0625 11.7889 20.9637 11.911C20.1235 12.9489 18.9809 13.699 17.8355 14.449C15.9196 15.705 14.0008 16.9638 13.6926 19.5571C13.6403 19.9932 13.6432 20.4729 13.7159 20.9497C13.774 21.3305 13.8787 21.7056 14.0328 22.0515C14.2537 22.0893 14.4776 22.1068 14.7014 22.1097C14.9718 22.1126 15.248 22.098 15.5184 22.0806C16.5679 22.0196 17.6058 21.691 18.5303 21.1561C19.4577 20.6183 20.2747 19.874 20.8736 18.9844C21.5975 17.9087 22.0539 16.6382 22.1382 15.327C22.2051 14.3124 22.051 13.2716 21.6353 12.2744C21.5597 12.0942 21.4783 11.9197 21.3881 11.7482C21.3387 11.6552 21.3736 11.5389 21.4666 11.4894L21.6033 11.4139C21.6498 11.3877 21.7021 11.3819 21.7516 11.3993C21.8039 11.4139 21.8417 11.4487 21.8678 11.4953C22.5191 12.7454 22.7633 14.0769 22.679 15.3677C22.5859 16.7778 22.1004 18.1384 21.3242 19.2925C20.6759 20.2548 19.7979 21.0572 18.8007 21.6358C17.8035 22.2114 16.6842 22.5632 15.5475 22.6301C15.2713 22.6475 14.9893 22.6621 14.6956 22.6592C14.3962 22.6562 14.0938 22.6301 13.7857 22.5632L13.6577 22.5341L13.5996 22.4178C13.3844 21.9847 13.2449 21.5108 13.1722 21.034C13.0908 20.5107 13.0908 19.9816 13.1461 19.496C13.4833 16.6498 15.5097 15.3212 17.5273 13.9984C18.6379 13.2716 19.7455 12.5448 20.5305 11.5708C20.6235 11.4575 20.7108 11.3383 20.7863 11.2191C20.8619 11.0999 20.9346 10.9778 21.0015 10.8498C21.3387 10.1899 21.5103 9.39331 21.3474 8.48624C21.3155 8.3089 21.2719 8.12574 21.2108 7.93967M20.0828 7.09075C20.2427 7.19251 20.3968 7.30008 20.5479 7.40764C20.4491 7.64023 20.3066 7.84083 20.1264 7.99782C19.9287 8.17226 19.6874 8.30017 19.4141 8.37576C19.3182 8.40193 19.2164 8.42228 19.1118 8.43682C19.3356 8.57636 19.5449 8.72173 19.7397 8.87581C20.2514 9.27411 20.673 9.70729 21.0364 10.1783C21.0683 10.2219 21.0829 10.2713 21.0742 10.3236C21.0538 10.4661 20.7427 10.6929 20.6003 10.5068C20.2659 10.0707 19.8764 9.6695 19.4054 9.30609C19.0972 9.06769 18.7542 8.84383 18.3704 8.63451C18.2076 8.54729 18.132 8.36123 18.1814 8.18388C18.2338 8.00654 18.3966 7.89316 18.5797 7.90479C18.8298 7.92223 19.0623 7.90188 19.2658 7.84373C19.4577 7.7885 19.6263 7.70128 19.763 7.58208C19.8967 7.46288 19.9985 7.31461 20.0653 7.13145C20.0712 7.11401 20.077 7.09947 20.0828 7.08203V7.09075Z" fill="white"/>
<path fill-rule="evenodd" clip-rule="evenodd" d="M15.7218 20.6098C15.2596 20.5342 14.9456 20.0981 15.0183 19.6359C15.0939 19.1736 15.5299 18.8596 15.9922 18.9323C16.4545 19.0079 16.7684 19.444 16.6958 19.9063C16.6202 20.3685 16.1841 20.6825 15.7218 20.6098Z" fill="white"/>
<path fill-rule="evenodd" clip-rule="evenodd" d="M8.782 22.0694C8.53198 21.8485 8.29358 21.6159 8.07263 21.3746C7.95634 20.4384 8.15112 19.607 8.50872 18.9092C8.58431 18.7639 8.66571 18.6243 8.75002 18.4906C8.84305 18.3481 8.93899 18.2144 9.03784 18.0923C9.87804 17.0544 11.0206 16.3043 12.1661 15.5542C14.0819 14.2983 16.0007 13.0395 16.3089 10.4462C16.3612 10.0101 16.3583 9.53038 16.2856 9.05359C16.2275 8.67274 16.1228 8.2977 15.9688 7.95174C15.7478 7.91395 15.5239 7.8965 15.3001 7.89359C15.0297 7.89069 14.7535 7.90522 14.4831 7.92267C13.4336 7.98372 12.3957 8.31224 11.4712 8.84718C10.5438 9.38502 9.72686 10.1264 9.12797 11.0189C8.40406 12.0946 7.95052 13.3651 7.86331 14.6762C7.79644 15.6909 7.95052 16.7317 8.36626 17.7289C8.44185 17.9091 8.52325 18.0836 8.61338 18.2551C8.6628 18.3481 8.62792 18.4644 8.53488 18.5138L8.39533 18.5894C8.34882 18.6156 8.29649 18.6214 8.24706 18.604C8.19473 18.5894 8.15694 18.5574 8.13077 18.508C7.47955 17.2579 7.23243 15.9264 7.31965 14.6355C7.41268 13.2255 7.89819 11.8649 8.67443 10.7107C9.32275 9.74843 10.2007 8.94602 11.1979 8.36748C12.1951 7.79184 13.3144 7.44006 14.4512 7.37319C14.7274 7.35575 15.0094 7.34122 15.303 7.34412C15.6024 7.34703 15.9048 7.37319 16.213 7.44006L16.3409 7.46913L16.399 7.58543C16.6142 8.01861 16.7508 8.49249 16.8264 8.96928C16.9078 9.49259 16.9078 10.0217 16.8526 10.5072C16.5153 13.3534 14.489 14.6821 12.4713 16.0049C11.3607 16.7317 10.2531 17.4585 9.46812 18.4324C9.37508 18.5458 9.28786 18.665 9.21228 18.7842C9.13669 18.9034 9.06401 19.0255 8.99714 19.1534C8.6599 19.8134 8.48837 20.61 8.65117 21.517C8.68315 21.6944 8.72676 21.8775 8.78782 22.0636M9.91583 22.9125C9.75593 22.8108 9.60185 22.7032 9.45067 22.5956C9.54952 22.3601 9.69197 22.1624 9.87223 22.0055C10.0699 21.831 10.3112 21.7031 10.5845 21.6275C10.6804 21.6013 10.7822 21.5781 10.8869 21.5665C10.663 21.4269 10.4537 21.2815 10.2589 21.1275C9.74721 20.7292 9.32566 20.296 8.96225 19.825C8.93027 19.7814 8.91574 19.732 8.92446 19.6796C8.94481 19.5372 9.25589 19.3104 9.39834 19.4965C9.73268 19.9326 10.1222 20.3338 10.5903 20.6972C10.8985 20.9356 11.2415 21.1594 11.6253 21.3688C11.7881 21.456 11.8637 21.642 11.8143 21.8194C11.7619 21.9967 11.5991 22.1101 11.416 22.0985C11.166 22.081 10.9334 22.0985 10.7299 22.1595C10.538 22.2148 10.3694 22.302 10.2327 22.4212C10.099 22.5404 9.99724 22.6887 9.93037 22.8718C9.92456 22.8893 9.91874 22.9038 9.91293 22.9212L9.91583 22.9125Z" fill="white"/>
<path fill-rule="evenodd" clip-rule="evenodd" d="M14.2775 9.39034C14.7398 9.46593 15.0567 9.90201 14.9811 10.3643C14.9055 10.8265 14.4694 11.1405 14.0072 11.0678C13.5449 10.9922 13.2309 10.5561 13.3036 10.0939C13.3792 9.63164 13.8153 9.31765 14.2775 9.39034Z" fill="white"/>
</svg>
